<?xml version="1.0" encoding="UTF-8"?>
<!-- Generator: Adobe Illustrator 22.0.1, SVG Export Plug-In . SVG Version: 6.00 Build 0)  -->
<svg version="1.1" id="Layer_3" xmlns="http://www.w3.org/2000/svg" xmlns:xlink="http://www.w3.org/1999/xlink" x="0px" y="0px" viewBox="0 0 670.2 495.1" style="enable-background:new 0 0 670.2 495.1;" xml:space="preserve">
<style type="text/css">
	.st0{fill:url(#SVGID_1_);}
	.st1{fill:url(#SVGID_2_);}
	.st2{fill:url(#SVGID_3_);}
	.st3{fill:url(#SVGID_4_);}
	.st4{fill:#34526C;}
	.st5{fill:#7AB04E;}
	.st6{fill:url(#SVGID_5_);}
</style>
<linearGradient id="SVGID_1_" gradientUnits="userSpaceOnUse" x1="186.2" y1="421.7523" x2="321.2" y2="421.7523" gradientTransform="matrix(1 0 0 -1 0 576.0046)">
	<stop offset="0" style="stop-color:#34526C"/>
	<stop offset="0.3154" style="stop-color:#35546F"/>
	<stop offset="0.5051" style="stop-color:#395B77"/>
	<stop offset="0.6616" style="stop-color:#406685"/>
	<stop offset="0.7999" style="stop-color:#497599"/>
	<stop offset="0.925" style="stop-color:#558AB3"/>
	<stop offset="1" style="stop-color:#5E99C7"/>
</linearGradient>
<polygon class="st0" points="321.2,153.6 321.2,77 186.2,154.9 186.2,231.5 "/>
<linearGradient id="SVGID_2_" gradientUnits="userSpaceOnUse" x1="352.2" y1="498.7523" x2="487.2" y2="498.7523" gradientTransform="matrix(1 0 0 -1 0 576.0046)">
	<stop offset="0" style="stop-color:#5E99C7"/>
	<stop offset="7.499230e-02" style="stop-color:#558AB3"/>
	<stop offset="0.2001" style="stop-color:#497599"/>
	<stop offset="0.3384" style="stop-color:#406685"/>
	<stop offset="0.4949" style="stop-color:#395B77"/>
	<stop offset="0.6846" style="stop-color:#35546F"/>
	<stop offset="1" style="stop-color:#34526C"/>
</linearGradient>
<polygon class="st1" points="352.2,76.6 352.2,0 487.2,77.9 487.2,154.5 "/>
<linearGradient id="SVGID_3_" gradientUnits="userSpaceOnUse" x1="186.2" y1="291.4023" x2="321.2" y2="291.4023" gradientTransform="matrix(1 0 0 -1 0 576.0046)">
	<stop offset="0" style="stop-color:#34526C"/>
	<stop offset="0.3154" style="stop-color:#35546F"/>
	<stop offset="0.5051" style="stop-color:#395B77"/>
	<stop offset="0.6616" style="stop-color:#406685"/>
	<stop offset="0.7999" style="stop-color:#497599"/>
	<stop offset="0.925" style="stop-color:#558AB3"/>
	<stop offset="1" style="stop-color:#5E99C7"/>
</linearGradient>
<path class="st2" d="M321.2,360.2v-168l-135,77.9V377C229.7,366.9,274.9,361.1,321.2,360.2z"/>
<linearGradient id="SVGID_4_" gradientUnits="userSpaceOnUse" x1="352.2" y1="329.9523" x2="487.2" y2="329.9523" gradientTransform="matrix(1 0 0 -1 0 576.0046)">
	<stop offset="0" style="stop-color:#5E99C7"/>
	<stop offset="7.499230e-02" style="stop-color:#558AB3"/>
	<stop offset="0.2001" style="stop-color:#497599"/>
	<stop offset="0.3384" style="stop-color:#406685"/>
	<stop offset="0.4949" style="stop-color:#395B77"/>
	<stop offset="0.6846" style="stop-color:#35546F"/>
	<stop offset="1" style="stop-color:#34526C"/>
</linearGradient>
<path class="st3" d="M487.2,377.8V192.2l-135-77.9v246C398.6,361.4,443.7,367.4,487.2,377.8z"/>
<g>
	<path class="st4" d="M85.6,494.6v-39.3h4.6v39.3H85.6z"/>
	<path class="st4" d="M113,494.6h-4.6v-35.2H96v-4.1h29.4v4.1H113V494.6z"/>
	<path class="st4" d="M131.4,494.6v-39.3h4.6v39.3H131.4z"/>
	<path class="st5" d="M178.4,494.6l-13.3-34.8h-0.2c0.3,2.8,0.4,6,0.4,9.8v25h-4.2v-39.3h6.9l12.4,32.4h0.2l12.5-32.4h6.8v39.3h-4.6   v-25.3c0-2.9,0.1-6.1,0.4-9.5h-0.2l-13.4,34.8H178.4z"/>
	<path class="st5" d="M235.3,494.6l-4.9-12.5h-15.7l-4.8,12.5h-4.7l15.5-39.4h3.8l15.4,39.4H235.3z M229,478l-4.6-12.2   c-0.6-1.5-1.2-3.4-1.8-5.7c-0.4,1.7-1,3.6-1.7,5.7l-4.6,12.2H229z"/>
	<path class="st5" d="M262.7,474H276v19.1c-2.1,0.7-4.2,1.2-6.3,1.5c-2.1,0.3-4.6,0.5-7.5,0.5c-5.9,0-10.6-1.8-13.9-5.3   s-5-8.5-5-14.9c0-4.1,0.8-7.7,2.5-10.7c1.6-3.1,4-5.4,7.1-7c3.1-1.6,6.7-2.4,10.8-2.4c4.2,0,8.1,0.8,11.7,2.3l-1.8,4   c-3.5-1.5-7-2.3-10.2-2.3c-4.8,0-8.5,1.4-11.2,4.3s-4,6.8-4,11.8c0,5.3,1.3,9.3,3.9,12.1c2.6,2.7,6.4,4.1,11.4,4.1   c2.7,0,5.4-0.3,8-0.9v-12.1h-8.8V474z"/>
	<path class="st5" d="M295.5,474.9l10.5-19.6h4.9l-13.1,24v15.2h-4.6v-15l-13.1-24.3h5L295.5,474.9z"/>
	<path class="st5" d="M341,494.6l-4.9-12.5h-15.7l-4.8,12.5H311l15.5-39.4h3.8l15.4,39.4H341z M334.7,478l-4.6-12.2   c-0.6-1.5-1.2-3.4-1.8-5.7c-0.4,1.7-1,3.6-1.7,5.7L322,478H334.7z"/>
	<path class="st5" d="M355.7,478.3v16.3h-4.6v-39.3h10.8c4.8,0,8.4,0.9,10.7,2.8c2.3,1.8,3.5,4.6,3.5,8.3c0,5.2-2.6,8.7-7.9,10.5   l10.7,17.6h-5.4l-9.5-16.3h-8.3V478.3z M355.7,474.3h6.3c3.2,0,5.6-0.6,7.1-1.9s2.3-3.2,2.3-5.8s-0.8-4.5-2.3-5.6s-4-1.7-7.4-1.7   h-5.9L355.7,474.3L355.7,474.3z"/>
	<path class="st5" d="M419.2,474.9c0,6.3-1.6,11.2-4.8,14.8c-3.2,3.6-7.6,5.4-13.3,5.4c-5.8,0-10.2-1.8-13.4-5.3   c-3.1-3.5-4.7-8.5-4.7-15c0-6.4,1.6-11.3,4.7-14.9c3.2-3.5,7.6-5.3,13.4-5.3c5.6,0,10,1.8,13.2,5.4   C417.6,463.7,419.2,468.6,419.2,474.9z M387.9,474.9c0,5.3,1.1,9.4,3.4,12.1c2.3,2.7,5.6,4.1,9.9,4.1c4.4,0,7.6-1.4,9.9-4.1   s3.3-6.8,3.3-12.1s-1.1-9.3-3.3-12s-5.5-4.1-9.8-4.1c-4.4,0-7.7,1.4-9.9,4.1C389.2,465.6,387.9,469.6,387.9,474.9z"/>
	<path class="st5" d="M432.5,478.3v16.3h-4.6v-39.3h10.8c4.8,0,8.4,0.9,10.7,2.8c2.3,1.8,3.5,4.6,3.5,8.3c0,5.2-2.6,8.7-7.9,10.5   l10.7,17.6h-5.5l-9.5-16.3h-8.2V478.3z M432.5,474.3h6.3c3.2,0,5.6-0.6,7.1-1.9s2.3-3.2,2.3-5.8s-0.8-4.5-2.3-5.6s-4-1.7-7.4-1.7   h-5.9L432.5,474.3L432.5,474.3z"/>
	<path class="st5" d="M484.1,484.1c0,3.5-1.3,6.2-3.8,8.1s-5.9,2.9-10.2,2.9c-4.7,0-8.2-0.6-10.7-1.8v-4.4c1.6,0.7,3.4,1.2,5.3,1.6   c1.9,0.4,3.8,0.6,5.6,0.6c3,0,5.3-0.6,6.9-1.7c1.5-1.2,2.3-2.8,2.3-4.8c0-1.4-0.3-2.5-0.8-3.3s-1.5-1.7-2.7-2.4   c-1.3-0.7-3.2-1.6-5.8-2.5c-3.7-1.3-6.3-2.9-7.8-4.6c-1.6-1.8-2.3-4.1-2.3-7c0-3,1.1-5.4,3.4-7.2c2.3-1.8,5.3-2.7,9-2.7   c3.9,0,7.5,0.7,10.8,2.1l-1.4,4c-3.2-1.4-6.4-2-9.5-2c-2.4,0-4.3,0.5-5.7,1.6c-1.4,1-2,2.5-2,4.3c0,1.4,0.2,2.5,0.8,3.3   c0.5,0.9,1.3,1.7,2.5,2.4s3,1.5,5.5,2.4c4.1,1.5,7,3,8.5,4.7C483.3,479.3,484.1,481.4,484.1,484.1z"/>
	<path class="st5" d="M515.9,494.6h-27V491l20.8-31.6h-20.2v-4.1h25.8v3.6l-20.8,31.6h21.4V494.6z"/>
	<path class="st5" d="M548.2,494.6l-4.9-12.5h-15.7l-4.8,12.5h-4.6l15.5-39.4h3.8l15.4,39.4H548.2z M541.9,478l-4.6-12.2   c-0.6-1.5-1.2-3.4-1.8-5.7c-0.4,1.7-1,3.6-1.7,5.7l-4.6,12.2H541.9z M532.2,451.5c0.9-1.1,1.8-2.5,2.8-4c1-1.6,1.8-2.9,2.4-4.1h5.4   v0.6c-0.8,1.2-2,2.6-3.5,4.3s-2.9,3-4.1,3.9h-3L532.2,451.5L532.2,451.5z"/>
	<path class="st5" d="M575.6,474h13.3v19.1c-2.1,0.7-4.2,1.2-6.3,1.5s-4.6,0.5-7.5,0.5c-5.9,0-10.6-1.8-13.9-5.3s-5-8.5-5-14.9   c0-4.1,0.8-7.7,2.5-10.7c1.6-3.1,4-5.4,7.1-7s6.7-2.4,10.8-2.4c4.2,0,8.1,0.8,11.7,2.3l-1.8,4c-3.5-1.5-7-2.3-10.2-2.3   c-4.8,0-8.5,1.4-11.2,4.3s-4,6.8-4,11.8c0,5.3,1.3,9.3,3.9,12.1s6.4,4.1,11.4,4.1c2.7,0,5.4-0.3,8-0.9v-12.1h-8.8V474z"/>
</g>
<linearGradient id="SVGID_5_" gradientUnits="userSpaceOnUse" x1="0" y1="157.5523" x2="670.4" y2="157.5523" gradientTransform="matrix(1 0 0 -1 0 576.0046)">
	<stop offset="0" style="stop-color:#599146"/>
	<stop offset="0.2973" style="stop-color:#6DA44B"/>
	<stop offset="1" style="stop-color:#99CD55"/>
</linearGradient>
<path class="st6" d="M335.2,399.1c118.6,0,231.8,23.3,335.2,65.5c-98-58.6-212.7-92.3-335.2-92.3S98.1,406,0,464.6  C103.4,422.4,216.6,399.1,335.2,399.1z"/>
</svg>